<svg xmlns="http://www.w3.org/2000/svg" viewBox="0 0 1600 900">
  <defs>
    <linearGradient id="sky" x1="0" y1="0" x2="0" y2="1">
      <stop offset="0%" stop-color="#8fb6d9"/>
      <stop offset="58%" stop-color="#dce8f2"/>
      <stop offset="100%" stop-color="#f7f1e8"/>
    </linearGradient>
    <linearGradient id="sea" x1="0" y1="0" x2="1" y2="1">
      <stop offset="0%" stop-color="#5f8fb4"/>
      <stop offset="100%" stop-color="#2f6c8c"/>
    </linearGradient>
  </defs>
  <rect width="1600" height="900" fill="url(#sky)"/>
  <rect y="420" width="1600" height="480" fill="url(#sea)"/>
  <path d="M0 545C156 505 235 517 363 560C484 601 616 614 776 564C954 509 1105 461 1281 489C1423 512 1519 560 1600 584V900H0Z" fill="#406f56" opacity=".42"/>
  <path d="M0 615C117 571 227 562 347 604C491 654 612 680 782 628C977 568 1088 545 1270 585C1402 614 1492 659 1600 699V900H0Z" fill="#274737" opacity=".52"/>
  <circle cx="1224" cy="196" r="68" fill="#ffe0ae" opacity=".9"/>
  <path d="M1140 518l96-78 28 18-84 66 0 94-40 0z" fill="#2d3f53"/>
  <path d="M1180 524l74-60 19 13-63 50z" fill="#f3c64d"/>
  <rect x="1173" y="514" width="10" height="124" fill="#1e2a36"/>
  <rect x="300" y="620" width="520" height="18" rx="9" fill="#f0ede5" opacity=".82"/>
  <rect x="328" y="668" width="468" height="10" rx="5" fill="#f0ede5" opacity=".58"/>
  <text x="140" y="144" fill="#ffffff" fill-opacity=".88" font-size="52" font-family="Arial, sans-serif" font-weight="700">Trip Atlas</text>
</svg>
