<svg width="960" height="520" viewBox="0 0 960 520" fill="none" xmlns="http://www.w3.org/2000/svg">
  <rect width="960" height="520" rx="32" fill="#FFFDF9"/>
  <path d="M120 160C154 138 179 132 212 135C244 138 268 153 295 167C325 183 352 192 388 189C420 186 444 170 470 168C505 165 532 188 543 216C552 239 548 262 535 279C516 304 484 319 443 316C403 313 372 295 341 287C297 276 245 290 203 280C168 272 129 245 113 213C103 193 101 173 120 160Z" fill="#E6EFEA"/>
  <path d="M560 134C591 111 634 102 676 110C719 118 742 143 774 157C807 171 843 172 859 196C874 218 870 254 848 281C822 314 781 327 745 324C706 321 676 305 645 289C612 271 577 252 564 224C552 197 536 159 560 134Z" fill="#E6EFEA"/>
  <path d="M716 365C740 350 776 349 810 357C843 364 872 382 875 405C878 428 855 448 824 458C793 467 749 468 725 451C700 434 692 388 716 365Z" fill="#E6EFEA"/>
  <path d="M416 334C436 322 465 321 490 326C516 331 538 343 542 363C546 383 531 401 509 410C486 419 455 418 433 407C411 396 396 346 416 334Z" fill="#E6EFEA"/>
  <path d="M176 346C195 331 227 325 256 329C286 333 311 348 316 370C321 393 304 413 278 422C252 431 217 427 194 412C171 397 157 361 176 346Z" fill="#E6EFEA"/>
</svg>
