<svg width="120" height="120" viewBox="0 0 120 120" fill="none" xmlns="http://www.w3.org/2000/svg">
  <circle cx="60" cy="44" r="24" fill="#7A756F"/>
  <path d="M41 26L49 12L58 27L41 26Z" fill="#7A756F"/>
  <path d="M62 27L71 12L79 26L62 27Z" fill="#7A756F"/>
  <circle cx="53" cy="44" r="2.8" fill="#2A211C"/>
  <circle cx="67" cy="44" r="2.8" fill="#2A211C"/>
  <path d="M55 55C58.5 58 62.5 58 66 55" stroke="#2A211C" stroke-width="2.6" stroke-linecap="round"/>
  <ellipse cx="60" cy="87" rx="28" ry="20" fill="#7A756F"/>
  <rect x="40" y="88" width="10" height="18" rx="5" fill="#FFF7EF"/>
  <rect x="52" y="92" width="10" height="16" rx="5" fill="#FFF7EF"/>
  <rect x="64" y="88" width="10" height="18" rx="5" fill="#FFF7EF"/>
  <rect x="76" y="92" width="10" height="16" rx="5" fill="#FFF7EF"/>
  <path d="M86 80C96 81 102 89 102 101" stroke="#7A756F" stroke-width="8" stroke-linecap="round"/>
</svg>
